<svg xmlns="http://www.w3.org/2000/svg" width="19" height="18" viewBox="0 0 19 18" fill="#42526e"><path d="M13.863 11.545L5.377 1.557C5.275 1.448 5.217 1.304 5.217 1.155C5.217 0.995 5.276 0.863 5.393 0.765C5.51 0.667 5.663 0.617 5.863 0.617H13.782C13.941 0.612 14.099 0.643 14.244 0.708C14.388 0.773 14.517 0.869 14.619 0.991L18.794 5.767C18.904 5.911 18.962 6.098 18.97 6.332C18.978 6.566 18.919 6.753 18.794 6.897L14.725 11.462C14.616 11.591 14.462 11.673 14.295 11.692C14.115 11.719 13.974 11.669 13.865 11.544L13.863 11.545ZM9.043 16.968L0.177 6.738C0.052 6.594-0.007 6.407 0.001 6.177C0.002 5.971 0.074 5.772 0.204 5.612L3.06 2.282C3.205 2.122 3.357 2.04 3.518 2.04C3.714 2.04 3.878 2.122 4.003 2.282L12.924 12.754C13.03 12.879 13.084 13.011 13.084 13.144C13.084 13.277 13.033 13.409 12.924 13.534L9.907 16.969C9.86 17.036 9.797 17.091 9.724 17.128C9.651 17.166 9.57 17.184 9.488 17.183C9.402 17.183 9.318 17.164 9.241 17.127C9.163 17.09 9.095 17.036 9.042 16.969L9.043 16.968Z"/></svg>
